<svg height='75px' width='75px'  fill="#FF0000" xmlns="http://www.w3.org/2000/svg" xmlns:xlink="http://www.w3.org/1999/xlink" version="1.1" x="0px" y="0px" viewBox="0 0 100 100" style="enable-background:new 0 0 100 100;" xml:space="preserve"><path d="M50,95c2.071,0,3.75-1.679,3.75-3.75S52.071,87.5,50,87.5c-10.017,0-19.434-3.9-26.516-10.983   C16.401,69.434,12.5,60.017,12.5,50c0-10.016,3.901-19.433,10.984-26.516l5.303,5.303v-15.91h-15.91l5.304,5.304l0,0   C9.681,26.68,5,37.98,5,50s4.681,23.32,13.18,31.819C26.679,90.319,37.98,95,50,95z"></path><path d="M91.25,46.271c-2.07,0-3.75,1.68-3.75,3.75c0,2.069,1.68,3.75,3.75,3.75c2.07,0,3.75-1.67,3.75-3.75   C95,47.95,93.32,46.271,91.25,46.271z"></path><path d="M91.883,34.235c0-2.07-1.68-3.75-3.75-3.75c-2.07,0-3.75,1.68-3.75,3.75c0,2.069,1.68,3.75,3.75,3.75   C90.203,37.985,91.883,36.315,91.883,34.235z"></path><path d="M79.17,17.08c-2.07,0-3.75,1.68-3.75,3.75c0,2.069,1.68,3.75,3.75,3.75c2.07,0,3.75-1.67,3.75-3.75   C82.92,18.76,81.24,17.08,79.17,17.08z"></path><path d="M88.113,69.555c2.07,0,3.75-1.67,3.75-3.75c0-2.07-1.68-3.75-3.75-3.75c-2.07,0-3.75,1.68-3.75,3.75   C84.363,67.875,86.043,69.555,88.113,69.555z"></path><path d="M79.17,75.424c-2.07,0-3.75,1.68-3.75,3.75c0,2.069,1.68,3.75,3.75,3.75c2.07,0,3.75-1.67,3.75-3.75   C82.92,77.104,81.24,75.424,79.17,75.424z"></path><path d="M65.79,91.87c2.07,0,3.75-1.67,3.75-3.75c0-2.07-1.68-3.75-3.75-3.75c-2.07,0-3.75,1.68-3.75,3.75   C62.04,90.189,63.72,91.87,65.79,91.87z"></path><path d="M50,70c11.028,0,20-8.972,20-20c0-8.375-5.18-15.553-12.5-18.527v8.551c3.029,2.283,5,5.899,5,9.976   c0,6.893-5.607,12.5-12.5,12.5S37.5,56.893,37.5,50c0-4.077,1.971-7.693,5-9.976v-8.551C35.18,34.447,30,41.625,30,50   C30,61.028,38.972,70,50,70z"></path><rect x="46.25" y="25" width="7.5" height="22.5"></rect><path d="M62.29,10.439c-0.78,1.91,0.13,4.101,2.04,4.9c0.47,0.19,0.95,0.28,1.43,0.28c1.47,0,2.87-0.87,3.47-2.32   c0.79-1.92-0.12-4.11-2.04-4.9C65.28,7.609,63.09,8.52,62.29,10.439z"></path><path d="M49.979,12.5c2.07,0,3.75-1.681,3.75-3.75c0-2.07-1.68-3.75-3.75-3.75c-2.08,0-3.75,1.68-3.75,3.75   C46.229,10.819,47.91,12.5,49.979,12.5z"></path></svg>